<?xml version="1.0" standalone="no"?>
<!DOCTYPE svg PUBLIC "-//W3C//DTD SVG 20010904//EN"
 "http://www.w3.org/TR/2001/REC-SVG-20010904/DTD/svg10.dtd">
<svg version="1.0" xmlns="http://www.w3.org/2000/svg"
 width="500.000000pt" height="500.000000pt" viewBox="0 0 500.000000 500.000000"
 preserveAspectRatio="xMidYMid meet">

<g transform="translate(0.000000,500.000000) scale(0.100000,-0.100000)"
fill="#d03f2c" stroke="none">
<path d="M325 4788 c-50 -18 -82 -46 -104 -91 l-21 -44 25 -119 c13 -65 38
-180 55 -254 17 -74 51 -229 75 -345 24 -115 69 -325 99 -465 30 -140 84 -394
120 -565 36 -170 70 -329 76 -351 5 -23 30 -138 54 -255 25 -118 70 -331 101
-474 31 -143 67 -312 80 -375 13 -63 53 -254 89 -425 37 -171 76 -355 87 -410
57 -273 117 -399 205 -424 52 -15 99 15 157 99 17 25 87 115 156 200 70 85
176 218 238 295 61 77 188 236 282 354 166 207 171 215 171 260 0 90 -82 224
-216 352 -88 83 -134 111 -176 107 -31 -3 -40 -15 -201 -283 -92 -154 -172
-287 -177 -295 -12 -21 -18 -12 -39 66 -20 74 -74 267 -141 509 -23 83 -64
229 -90 325 -27 96 -67 240 -89 320 -23 80 -54 195 -71 255 -17 61 -53 191
-81 290 -130 464 -150 537 -144 543 3 3 12 -3 20 -14 12 -18 217 -276 611
-769 115 -144 107 -133 670 -840 752 -945 860 -1080 979 -1230 349 -439 383
-481 421 -501 56 -31 96 -37 136 -21 66 28 80 56 137 293 29 120 59 242 66
269 8 28 46 185 85 350 92 386 136 572 275 1140 101 419 171 706 205 850 16
66 51 212 78 325 28 113 69 284 92 380 81 339 109 446 155 600 50 166 52 198
16 249 -24 34 -77 61 -118 61 -47 0 -111 -49 -224 -171 -89 -96 -666 -766
-1055 -1223 -61 -72 -242 -284 -403 -471 -161 -187 -300 -354 -308 -371 -9
-18 -13 -42 -10 -56 4 -13 52 -82 107 -154 55 -71 126 -163 158 -204 90 -118
114 -140 156 -140 53 0 80 32 196 230 57 96 207 351 333 565 127 215 307 521
400 680 94 160 187 317 207 350 21 33 56 93 79 133 23 39 46 72 50 72 5 0 -4
-35 -21 -77 -16 -43 -40 -107 -52 -143 -32 -88 -214 -579 -227 -610 -6 -14
-39 -104 -74 -200 -35 -96 -83 -224 -105 -285 -23 -60 -59 -157 -80 -215 -22
-58 -64 -172 -95 -255 -64 -171 -127 -340 -161 -435 -13 -36 -42 -114 -64
-175 -23 -60 -68 -182 -100 -270 -32 -88 -66 -178 -75 -200 l-17 -40 -24 30
c-24 29 -143 185 -333 435 -52 69 -136 179 -186 245 -50 66 -149 197 -220 290
-71 94 -163 215 -205 270 -42 55 -160 210 -262 345 -102 135 -247 326 -322
425 -75 99 -229 302 -341 450 -113 149 -239 315 -281 370 -42 55 -193 253
-334 440 -142 187 -273 354 -291 372 -33 31 -96 64 -121 62 -7 0 -26 -5 -43
-11z"/>
</g>
</svg>
